<svg width="82" height="94" viewBox="0 0 82 94" fill="none" xmlns="http://www.w3.org/2000/svg">
<path d="M30.6203 93.699C24.8789 93.699 19.7624 92.703 15.2708 90.7111C10.7792 88.6801 7.22496 85.6922 4.60811 81.7474C2.03033 77.7636 0.741434 72.8033 0.741434 66.8666C0.741434 61.8672 1.65928 57.6686 3.49498 54.2706C5.33068 50.8726 7.83035 48.1386 10.994 46.0685C14.1576 43.9985 17.7509 42.4362 21.7738 41.3816C25.8358 40.3271 30.0931 39.585 34.5456 39.1554C39.7793 38.6086 43.9975 38.1008 47.2002 37.6321C50.4029 37.1244 52.7268 36.3823 54.1719 35.4059C55.617 34.4294 56.3396 32.9843 56.3396 31.0705V30.719C56.3396 27.0085 55.1679 24.1378 52.8244 22.1068C50.5201 20.0758 47.2392 19.0604 42.982 19.0604C38.4904 19.0604 34.9166 20.0563 32.2607 22.0482C29.6048 24.0011 27.8473 26.4617 26.988 29.4301L3.90508 27.5553C5.0768 22.0873 7.38119 17.3614 10.8182 13.3775C14.2553 9.35459 18.6883 6.26906 24.1173 4.1209C29.5853 1.93369 35.9126 0.84009 43.0992 0.84009C48.0985 0.84009 52.883 1.42595 57.4527 2.59767C62.0615 3.76939 66.143 5.58556 69.6972 8.04617C73.2905 10.5068 76.1222 13.6704 78.1922 17.5371C80.2622 21.3647 81.2973 25.954 81.2973 31.3048V92H57.6285V79.5212H56.9255C55.4803 82.3333 53.547 84.8134 51.1254 86.9616C48.7039 89.0707 45.7941 90.7306 42.3961 91.9414C38.9981 93.1131 35.0729 93.699 30.6203 93.699ZM37.7678 76.4747C41.4392 76.4747 44.681 75.7521 47.4931 74.307C50.3052 72.8228 52.512 70.8309 54.1133 68.3312C55.7147 65.8316 56.5154 62.9999 56.5154 59.8363V50.2867C55.7342 50.7945 54.6601 51.2632 53.2931 51.6928C51.9652 52.0834 50.4615 52.4544 48.782 52.8059C47.1025 53.1184 45.4231 53.4113 43.7436 53.6847C42.0641 53.9191 40.5409 54.1339 39.1739 54.3292C36.2446 54.7588 33.6863 55.4423 31.4991 56.3797C29.3119 57.3171 27.6129 58.5864 26.4021 60.1878C25.1914 61.7501 24.586 63.7029 24.586 66.0464C24.586 69.4444 25.8163 72.0417 28.2769 73.8383C30.7766 75.5959 33.9402 76.4747 37.7678 76.4747Z" fill="#FFBADE"/>
</svg>
